# xmcd CD database file
#
# Track frame offsets:
#	150
#	20963
#	37066
#	59162
#	91649
#	111801
#	144582
#
# Disc length: 2284 seconds
#
# Revision: 0
# Processed by: cddbd v1.5.2PL0 Copyright (c) Steve Scherf et al.
# Submitted via: CDex 1.70beta2
#
DISCID=6308ea07
DTITLE=Martin Herzberg - Etwas bleibt
DYEAR=2016
DGENRE=Jazz
TTITLE0=Etwas bleibt
TTITLE1=Alles wie gemalt
TTITLE2=So viele schöne Türen
TTITLE3=Sonne
TTITLE4=Letzter Gedanke
TTITLE5=Sonne (instrumental)
TTITLE6=Sleep
EXTD=YEAR: 2016
EXTT0=
EXTT1=
EXTT2=
EXTT3=
EXTT4=
EXTT5=
EXTT6=
PLAYORDER=
